# xmcd
# 
# Track frame offsets:
#     150
#     17615
#     32132
#     56777
#     82940
#     100737
#     118075
#     140120
#     152280
#     180732
#     198572
#     252080
#     270345
#     302905
#     324887
# 
# Disc length: 4571
# 
# Revision: 3
# Processed by: cddbd v1.5.2PL0 Copyright (c) Steve Scherf et al.
# Submitted via: fre:ac v1.0.31
# 
DISCID=c111d90f
DTITLE=Marvin Gaye - Gold - Disc 2
DYEAR=2001
DGENRE=R&B
TTITLE0=What's Going On
TTITLE1=Mercy Mercy Me (The Ecology)
TTITLE2=Inner City Blues (Make Me Wanna Holler)
TTITLE3=You're The Man (Pts 1 and 2)
TTITLE4=Where Are We Going?
TTITLE5=Trouble Man
TTITLE6=Let's Get It On
TTITLE7=Come Get To This
TTITLE8=Distant Lover (Live)
TTITLE9=I Want You
TTITLE10=Got To Give It Up
TTITLE11=Anger
TTITLE12=Ego Tripping Out
TTITLE13=Praise
TTITLE14=Sexual Healing
EXTD=
EXTT0=
EXTT1=
EXTT2=
EXTT3=
EXTT4=
EXTT5=
EXTT6=
EXTT7=
EXTT8=
EXTT9=
EXTT10=
EXTT11=
EXTT12=
EXTT13=
EXTT14=
PLAYORDER=
